<svg xmlns="http://www.w3.org/2000/svg" viewBox="0 0 512 512" width="512" height="512">
  <defs>
    <linearGradient id="g" x1="0" y1="0" x2="1" y2="1">
      <stop offset="0" stop-color="#ff9ec4"/>
      <stop offset="0.55" stop-color="#ff7eb3"/>
      <stop offset="1" stop-color="#c46bff"/>
    </linearGradient>
    <radialGradient id="petal" cx="0.5" cy="0.35" r="0.7">
      <stop offset="0" stop-color="#ffffff" stop-opacity="0.95"/>
      <stop offset="1" stop-color="#ffd9e8" stop-opacity="0.9"/>
    </radialGradient>
  </defs>
  <rect width="512" height="512" rx="116" fill="url(#g)"/>
  <g transform="translate(256 250)">
    <g fill="url(#petal)">
      <ellipse cx="0" cy="-86" rx="40" ry="74"/>
      <ellipse cx="0" cy="-86" rx="40" ry="74" transform="rotate(72)"/>
      <ellipse cx="0" cy="-86" rx="40" ry="74" transform="rotate(144)"/>
      <ellipse cx="0" cy="-86" rx="40" ry="74" transform="rotate(216)"/>
      <ellipse cx="0" cy="-86" rx="40" ry="74" transform="rotate(288)"/>
    </g>
    <circle r="40" fill="#ff5e9a"/>
    <circle r="40" fill="#ffffff" opacity="0.18"/>
  </g>
  <path d="M256 392 c-30 0 -54 -24 -54 -54 c0 -30 54 -78 54 -78 s54 48 54 78 c0 30 -24 54 -54 54 z" fill="#ffffff" opacity="0.9"/>
</svg>
